<svg width="780.5px" height="120.8px" xmlns="http://www.w3.org/2000/svg" viewBox="-140.25 14.600000000000001 780.5 120.8" style="background: rgba(0, 0, 0, 0);" preserveAspectRatio="xMidYMid"><defs><linearGradient id="editing-gradow-gradient" x1="0" x2="1" y1="0.5" y2="0.5" gradientUnits="objectBoundingBox"><stop offset="0" stop-color="#f0f"></stop><stop offset="1" stop-color="#0ff"></stop></linearGradient><filter id="editing-gradow-filter" x="-100%" y="-100%" width="300%" height="300%"><feFlood flood-color="#fffcd9" result="flood"></feFlood><feComposite operator="in" in2="SourceAlpha" in="flood" result="shadow"></feComposite><feOffset dx="-4" dy="-4" in="SourceGraphic" result="offset-1"></feOffset><feOffset dx="4" dy="4" in="shadow" result="offset-2"></feOffset><feMerge><feMergeNode in="offset-2"></feMergeNode><feMergeNode in="offset-1"></feMergeNode></feMerge></filter></defs><g filter="url(#editing-gradow-filter)"><g transform="translate(-29.584991812705994, 104.79000282287598)"><path d="M16.38-3.52L16.38-3.52L16.38-3.52Q14.40 1.28 8.06 1.28L8.06 1.28L8.06 1.28Q4.86 1.28 2.82-0.96L2.82-0.96L2.82-0.96Q1.15-2.82 1.15-4.93L1.15-4.93L1.15-4.93Q1.15-9.73 3.39-20.22L3.39-20.22L8.06-44.80L21.06-46.08L14.85-13.70L14.85-13.70Q13.76-8.96 13.76-7.30L13.76-7.30L13.76-7.30Q13.76-3.65 16.38-3.52ZM35.78 1.28L35.78 1.28L35.78 1.28Q21.70 1.28 21.70-11.97L21.70-11.97L21.70-11.97Q21.70-21.38 26.88-27.46L26.88-27.46L26.88-27.46Q32.38-33.92 41.92-33.92L41.92-33.92L41.92-33.92Q48.83-33.92 52.35-30.72L52.35-30.72L52.35-30.72Q55.87-27.52 55.87-20.80L55.87-20.80L55.87-20.80Q55.87-10.56 50.37-4.61L50.37-4.61L50.37-4.61Q44.99 1.28 35.78 1.28ZM37.44-26.56L37.44-26.56L37.44-26.56Q36.67-24.83 36.06-22.24L36.06-22.24L36.06-22.24Q35.46-19.65 34.69-15.55L34.69-15.55L34.69-15.55Q33.92-11.46 33.92-6.40L33.92-6.40L33.92-6.40Q33.92-4.74 34.46-3.65L34.46-3.65L34.46-3.65Q35.01-2.56 36.48-2.56L36.48-2.56L36.48-2.56Q37.95-2.56 38.88-3.26L38.88-3.26L38.88-3.26Q39.81-3.97 40.51-5.63L40.51-5.63L40.51-5.63Q41.79-8.58 42.82-14.05L42.82-14.05L42.82-14.05Q43.84-19.52 43.94-21.89L43.94-21.89L43.94-21.89Q44.03-24.26 44.03-26.02L44.03-26.02L44.03-26.02Q44.03-27.78 43.52-28.93L43.52-28.93L43.52-28.93Q43.01-30.08 41.57-30.08L41.57-30.08L41.57-30.08Q40.13-30.08 39.17-29.18L39.17-29.18L39.17-29.18Q38.21-28.29 37.44-26.56ZM64.19-26.75L64.19-26.75L64.19-26.75Q66.37-29.82 69.66-31.87L69.66-31.87L69.66-31.87Q72.96-33.92 76.99-33.92L76.99-33.92L76.99-33.92Q81.02-33.92 82.94-32.64L82.94-32.64L95.49-33.92L91.14-9.34L91.14-9.34Q88.90 3.20 84.16 8.13L84.16 8.13L84.16 8.13Q79.62 12.80 70.78 12.80L70.78 12.80L70.78 12.80Q64.06 12.80 60.22 10.69L60.22 10.69L60.22 10.69Q56.38 8.58 56.38 5.06L56.38 5.06L56.38 5.06Q56.38 2.43 58.37 0.93L58.37 0.93L58.37 0.93Q60.35-0.58 63.42-0.58L63.42-0.58L63.42-0.58Q66.11-0.58 68.16 0.64L68.16 0.64L68.16 0.64Q69.38 1.28 69.95 2.18L69.95 2.18L69.95 2.18Q68.48 3.46 68.48 5.57L68.48 5.57L68.48 5.57Q68.48 8.32 71.04 8.32L71.04 8.32L71.04 8.32Q75.33 8.32 77.76-1.79L77.76-1.79L77.76-1.79Q78.46-4.54 79.04-7.30L79.04-7.30L79.04-7.30Q76.16-3.78 69.63-3.78L69.63-3.78L69.63-3.78Q65.09-3.78 62.46-5.95L62.46-5.95L62.46-5.95Q59.84-8.13 59.84-13.25L59.84-13.25L59.84-13.25Q59.84-16.45 60.93-20.06L60.93-20.06L60.93-20.06Q62.02-23.68 64.19-26.75ZM72.51-13.06L72.51-13.06L72.51-13.06Q72.51-8.70 74.75-8.70L74.75-8.70L74.75-8.70Q76.29-8.70 77.76-10.37L77.76-10.37L77.76-10.37Q78.91-11.71 79.36-13.70L79.36-13.70L82.62-30.14L82.62-30.14Q82.30-30.21 81.98-30.34L81.98-30.34L81.98-30.34Q81.34-30.59 80.51-30.59L80.51-30.59L80.51-30.59Q76.61-30.59 74.30-24.19L74.30-24.19L74.30-24.19Q72.51-19.20 72.51-13.06ZM113.34-3.52L113.34-3.52L113.34-3.52Q111.36 1.28 105.02 1.28L105.02 1.28L105.02 1.28Q101.76 1.28 99.71-0.96L99.71-0.96L99.71-0.96Q97.98-2.94 97.98-4.93L97.98-4.93L97.98-4.93Q97.98-10.11 100.35-20.22L100.35-20.22L102.72-32.64L115.71-33.92L111.81-13.70L111.81-13.70Q110.72-8.96 110.72-7.30L110.72-7.30L110.72-7.30Q110.72-3.65 113.34-3.52ZM103.87-41.54L103.87-41.54L103.87-41.54Q103.87-44.03 105.95-45.38L105.95-45.38L105.95-45.38Q108.03-46.72 111.04-46.72L111.04-46.72L111.04-46.72Q114.05-46.72 115.87-45.38L115.87-45.38L115.87-45.38Q117.70-44.03 117.70-41.54L117.70-41.54L117.70-41.54Q117.70-39.04 115.68-37.76L115.68-37.76L115.68-37.76Q113.66-36.48 110.66-36.48L110.66-36.48L110.66-36.48Q107.65-36.48 105.76-37.76L105.76-37.76L105.76-37.76Q103.87-39.04 103.87-41.54ZM137.92-22.46L137.92-22.46L137.92-22.46Q138.82-24.83 138.82-26.88L138.82-26.88L138.82-26.88Q138.82-30.66 135.74-30.66L135.74-30.66L135.74-30.66Q134.14-30.66 132.83-29.22L132.83-29.22L132.83-29.22Q131.52-27.78 131.52-25.98L131.52-25.98L131.52-25.98Q131.52-24.70 132.54-23.68L132.54-23.68L132.54-23.68Q134.02-22.27 137.79-19.97L137.79-19.97L137.79-19.97Q141.57-17.66 143.01-15.78L143.01-15.78L143.01-15.78Q144.45-13.89 144.45-11.30L144.45-11.30L144.45-11.30Q144.45-8.70 143.20-6.34L143.20-6.34L143.20-6.34Q141.95-3.97 139.71-2.30L139.71-2.30L139.71-2.30Q134.91 1.28 127.23 1.28L127.23 1.28L127.23 1.28Q123.07 1.28 119.87-0.90L119.87-0.90L119.87-0.90Q116.67-3.01 116.67-5.50L116.67-5.50L116.67-5.50Q116.67-8 118.50-9.47L118.50-9.47L118.50-9.47Q120.32-10.94 123.01-10.94L123.01-10.94L123.01-10.94Q125.70-10.94 127.36-9.92L127.36-9.92L127.36-9.92Q126.53-7.81 126.53-6.40L126.53-6.40L126.53-6.40Q126.53-2.18 130.11-2.18L130.11-2.18L130.11-2.18Q131.65-2.18 132.67-3.14L132.67-3.14L132.67-3.14Q133.70-4.10 133.70-5.76L133.70-5.76L133.70-5.76Q133.70-9.02 128.19-12.48L128.19-12.48L128.19-12.48Q123.71-15.42 122.69-16.58L122.69-16.58L122.69-16.58Q120.96-18.62 120.96-21.18L120.96-21.18L120.96-21.18Q120.96-23.74 122.18-26.18L122.18-26.18L122.18-26.18Q123.39-28.61 125.63-30.34L125.63-30.34L125.63-30.34Q130.30-33.92 138.43-33.92L138.43-33.92L138.43-33.92Q142.59-33.92 145.06-32.26L145.06-32.26L145.06-32.26Q147.52-30.59 147.52-27.78L147.52-27.78L147.52-27.78Q147.52-24.96 145.82-23.36L145.82-23.36L145.82-23.36Q144.13-21.76 141.06-21.76L141.06-21.76L141.06-21.76Q138.94-21.76 137.92-22.46ZM150.91-6.40L150.91-6.40L150.91-6.40Q150.91-8.13 151.81-12.48L151.81-12.48L155.20-29.76L151.42-29.76L151.68-31.68L151.68-31.68Q159.36-33.98 166.78-39.62L166.78-39.62L169.86-39.62L168.32-32.64L173.31-32.64L172.74-29.76L167.81-29.76L164.54-12.48L164.54-12.48Q163.71-8.51 163.71-7.17L163.71-7.17L163.71-7.17Q163.71-4.10 166.40-3.46L166.40-3.46L166.40-3.46Q165.76-1.28 163.46 0L163.46 0L163.46 0Q161.15 1.28 157.89 1.28L157.89 1.28L157.89 1.28Q154.62 1.28 152.77-0.77L152.77-0.77L152.77-0.77Q150.91-2.82 150.91-6.40ZM188.35-3.52L188.35-3.52L188.35-3.52Q186.37 1.28 180.03 1.28L180.03 1.28L180.03 1.28Q176.77 1.28 174.72-0.96L174.72-0.96L174.72-0.96Q172.99-2.94 172.99-4.93L172.99-4.93L172.99-4.93Q172.99-10.11 175.36-20.22L175.36-20.22L177.73-32.64L190.72-33.92L186.82-13.70L186.82-13.70Q185.73-8.96 185.73-7.30L185.73-7.30L185.73-7.30Q185.73-3.65 188.35-3.52ZM178.88-41.54L178.88-41.54L178.88-41.54Q178.88-44.03 180.96-45.38L180.96-45.38L180.96-45.38Q183.04-46.72 186.05-46.72L186.05-46.72L186.05-46.72Q189.06-46.72 190.88-45.38L190.88-45.38L190.88-45.38Q192.70-44.03 192.70-41.54L192.70-41.54L192.70-41.54Q192.70-39.04 190.69-37.76L190.69-37.76L190.69-37.76Q188.67-36.48 185.66-36.48L185.66-36.48L185.66-36.48Q182.66-36.48 180.77-37.76L180.77-37.76L180.77-37.76Q178.88-39.04 178.88-41.54ZM225.22-26.62L225.22-26.62L225.22-26.62Q225.22-23.94 222.98-22.27L222.98-22.27L222.98-22.27Q220.74-20.61 217.09-20.61L217.09-20.61L217.09-20.61Q215.55-20.61 214.66-21.06L214.66-21.06L214.66-21.06Q215.36-22.72 215.58-24.80L215.58-24.80L215.58-24.80Q215.81-26.88 215.81-27.46L215.81-27.46L215.81-27.46Q215.81-30.14 213.95-30.14L213.95-30.14L213.95-30.14Q212.67-30.14 211.23-28.54L211.23-28.54L211.23-28.54Q209.79-26.94 208.58-24.45L208.58-24.45L208.58-24.45Q205.89-18.69 205.89-12.86L205.89-12.86L205.89-12.86Q205.89-9.66 207.10-8.22L207.10-8.22L207.10-8.22Q208.32-6.78 211.01-6.78L211.01-6.78L211.01-6.78Q214.72-6.78 217.66-9.86L217.66-9.86L217.66-9.86Q218.50-10.82 218.94-11.90L218.94-11.90L218.94-11.90Q221.38-10.62 221.38-7.10L221.38-7.10L221.38-7.10Q221.38-3.52 217.41-1.15L217.41-1.15L217.41-1.15Q213.31 1.28 206.78 1.28L206.78 1.28L206.78 1.28Q193.79 1.28 193.79-12.48L193.79-12.48L193.79-12.48Q193.79-22.53 199.49-28.29L199.49-28.29L199.49-28.29Q204.99-33.92 215.10-33.92L215.10-33.92L215.10-33.92Q225.22-33.92 225.22-26.62ZM246.08-22.46L246.08-22.46L246.08-22.46Q246.98-24.83 246.98-26.88L246.98-26.88L246.98-26.88Q246.98-30.66 243.90-30.66L243.90-30.66L243.90-30.66Q242.30-30.66 240.99-29.22L240.99-29.22L240.99-29.22Q239.68-27.78 239.68-25.98L239.68-25.98L239.68-25.98Q239.68-24.70 240.70-23.68L240.70-23.68L240.70-23.68Q242.18-22.27 245.95-19.97L245.95-19.97L245.95-19.97Q249.73-17.66 251.17-15.78L251.17-15.78L251.17-15.78Q252.61-13.89 252.61-11.30L252.61-11.30L252.61-11.30Q252.61-8.70 251.36-6.34L251.36-6.34L251.36-6.34Q250.11-3.97 247.87-2.30L247.87-2.30L247.87-2.30Q243.07 1.28 235.39 1.28L235.39 1.28L235.39 1.28Q231.23 1.28 228.03-0.90L228.03-0.90L228.03-0.90Q224.83-3.01 224.83-5.50L224.83-5.50L224.83-5.50Q224.83-8 226.66-9.47L226.66-9.47L226.66-9.47Q228.48-10.94 231.17-10.94L231.17-10.94L231.17-10.94Q233.86-10.94 235.52-9.92L235.52-9.92L235.52-9.92Q234.69-7.81 234.69-6.40L234.69-6.40L234.69-6.40Q234.69-2.18 238.27-2.18L238.27-2.18L238.27-2.18Q239.81-2.18 240.83-3.14L240.83-3.14L240.83-3.14Q241.86-4.10 241.86-5.76L241.86-5.76L241.86-5.76Q241.86-9.02 236.35-12.48L236.35-12.48L236.35-12.48Q231.87-15.42 230.85-16.58L230.85-16.58L230.85-16.58Q229.12-18.62 229.12-21.18L229.12-21.18L229.12-21.18Q229.12-23.74 230.34-26.18L230.34-26.18L230.34-26.18Q231.55-28.61 233.79-30.34L233.79-30.34L233.79-30.34Q238.46-33.92 246.59-33.92L246.59-33.92L246.59-33.92Q250.75-33.92 253.22-32.26L253.22-32.26L253.22-32.26Q255.68-30.59 255.68-27.78L255.68-27.78L255.68-27.78Q255.68-24.96 253.98-23.36L253.98-23.36L253.98-23.36Q252.29-21.76 249.22-21.76L249.22-21.76L249.22-21.76Q247.10-21.76 246.08-22.46ZM302.66-26.62L302.66-26.62L302.66-26.62Q302.66-23.94 300.42-22.27L300.42-22.27L300.42-22.27Q298.18-20.61 294.53-20.61L294.53-20.61L294.53-20.61Q292.99-20.61 292.10-21.06L292.10-21.06L292.10-21.06Q292.80-22.72 293.02-24.80L293.02-24.80L293.02-24.80Q293.25-26.88 293.25-27.46L293.25-27.46L293.25-27.46Q293.25-30.14 291.39-30.14L291.39-30.14L291.39-30.14Q290.11-30.14 288.67-28.54L288.67-28.54L288.67-28.54Q287.23-26.94 286.02-24.45L286.02-24.45L286.02-24.45Q283.33-18.69 283.33-12.86L283.33-12.86L283.33-12.86Q283.33-9.66 284.54-8.22L284.54-8.22L284.54-8.22Q285.76-6.78 288.45-6.78L288.45-6.78L288.45-6.78Q292.16-6.78 295.10-9.86L295.10-9.86L295.10-9.86Q295.94-10.82 296.38-11.90L296.38-11.90L296.38-11.90Q298.82-10.62 298.82-7.10L298.82-7.10L298.82-7.10Q298.82-3.52 294.85-1.15L294.85-1.15L294.85-1.15Q290.75 1.28 284.22 1.28L284.22 1.28L284.22 1.28Q271.23 1.28 271.23-12.48L271.23-12.48L271.23-12.48Q271.23-22.53 276.93-28.29L276.93-28.29L276.93-28.29Q282.43-33.92 292.54-33.92L292.54-33.92L292.54-33.92Q302.66-33.92 302.66-26.62ZM318.34 1.28L318.34 1.28L318.34 1.28Q304.26 1.28 304.26-11.97L304.26-11.97L304.26-11.97Q304.26-21.38 309.44-27.46L309.44-27.46L309.44-27.46Q314.94-33.92 324.48-33.92L324.48-33.92L324.48-33.92Q331.39-33.92 334.91-30.72L334.91-30.72L334.91-30.72Q338.43-27.52 338.43-20.80L338.43-20.80L338.43-20.80Q338.43-10.56 332.93-4.61L332.93-4.61L332.93-4.61Q327.55 1.28 318.34 1.28ZM320-26.56L320-26.56L320-26.56Q319.23-24.83 318.62-22.24L318.62-22.24L318.62-22.24Q318.02-19.65 317.25-15.55L317.25-15.55L317.25-15.55Q316.48-11.46 316.48-6.40L316.48-6.40L316.48-6.40Q316.48-4.74 317.02-3.65L317.02-3.65L317.02-3.65Q317.57-2.56 319.04-2.56L319.04-2.56L319.04-2.56Q320.51-2.56 321.44-3.26L321.44-3.26L321.44-3.26Q322.37-3.97 323.07-5.63L323.07-5.63L323.07-5.63Q324.35-8.58 325.38-14.05L325.38-14.05L325.38-14.05Q326.40-19.52 326.50-21.89L326.50-21.89L326.50-21.89Q326.59-24.26 326.59-26.02L326.59-26.02L326.59-26.02Q326.59-27.78 326.08-28.93L326.08-28.93L326.08-28.93Q325.57-30.08 324.13-30.08L324.13-30.08L324.13-30.08Q322.69-30.08 321.73-29.18L321.73-29.18L321.73-29.18Q320.77-28.29 320-26.56ZM388.29 1.28L388.29 1.28L388.29 1.28Q380.54 1.28 380.54-4.74L380.54-4.74L380.54-4.74Q380.54-7.36 381.66-12.45L381.66-12.45L381.66-12.45Q382.78-17.54 383.17-19.58L383.17-19.58L383.17-19.58Q384.06-24.26 384.06-25.73L384.06-25.73L384.06-25.73Q384.06-28.99 381.63-28.99L381.63-28.99L381.63-28.99Q380.03-28.99 378.50-26.78L378.50-26.78L378.50-26.78Q376.96-24.58 376.26-20.16L376.26-20.16L372.29 0L359.81 1.28L363.26-16.13L363.26-16.13Q363.84-19.01 364.35-22.27L364.35-22.27L364.35-22.27Q364.86-25.54 364.86-26.05L364.86-26.05L364.86-26.05Q364.86-28.99 362.69-28.99L362.69-28.99L362.69-28.99Q361.22-28.99 359.62-26.82L359.62-26.82L359.62-26.82Q358.02-24.64 357.12-20.16L357.12-20.16L353.22 0L340.61 1.28L347.33-32.64L357.76-33.92L356.67-27.46L356.67-27.46Q358.34-30.91 361.41-32.42L361.41-32.42L361.41-32.42Q364.48-33.92 369.28-33.92L369.28-33.92L369.28-33.92Q372.03-33.92 373.82-32.58L373.82-32.58L373.82-32.58Q375.62-31.23 376.19-29.06L376.19-29.06L376.19-29.06Q377.28-31.30 380.06-32.61L380.06-32.61L380.06-32.61Q382.85-33.92 386.27-33.92L386.27-33.92L386.27-33.92Q389.70-33.92 391.39-33.18L391.39-33.18L391.39-33.18Q393.09-32.45 394.11-31.23L394.11-31.23L394.11-31.23Q395.84-28.99 395.84-24.90L395.84-24.90L395.84-24.90Q395.84-20.86 394.11-12.48L394.11-12.48L394.11-12.48Q393.22-8.38 393.22-6.88L393.22-6.88L393.22-6.88Q393.22-5.38 394.08-4.48L394.08-4.48L394.08-4.48Q394.94-3.58 396.22-3.46L396.22-3.46L396.22-3.46Q395.58-1.28 393.38 0L393.38 0L393.38 0Q391.17 1.28 388.29 1.28ZM430.98-4.38L430.98-4.38L430.98-4.38Q428.29-1.66 424.61-0.19L424.61-0.19L424.61-0.19Q420.93 1.28 417.28 1.28L417.28 1.28L417.28 1.28Q413.63 1.28 412.35 0.64L412.35 0.64L410.37 11.52L397.38 12.80L406.21-32.64L416.64-33.73L415.81-29.31L415.81-29.31Q418.50-33.86 424.06-33.86L424.06-33.86L424.06-33.86Q430.34-33.86 433.66-29.82L433.66-29.82L433.66-29.82Q436.61-26.18 436.61-20.61L436.61-20.61L436.61-20.61Q436.61-15.04 435.14-11.07L435.14-11.07L435.14-11.07Q433.66-7.10 430.98-4.38ZM416.51-22.34L413.12-3.58L413.12-3.58Q414.46-2.43 416.13-2.43L416.13-2.43L416.13-2.43Q417.79-2.43 418.75-3.07L418.75-3.07L418.75-3.07Q419.71-3.71 420.42-4.99L420.42-4.99L420.42-4.99Q422.34-8.45 423.87-18.94L423.87-18.94L423.87-18.94Q424.32-22.02 424.32-25.02L424.32-25.02L424.32-25.02Q424.32-28.03 423.65-28.99L423.65-28.99L423.65-28.99Q422.98-29.95 421.70-29.95L421.70-29.95L421.70-29.95Q417.79-29.95 416.51-22.34L416.51-22.34ZM443.23-1.92L443.23-1.92L443.23-1.92Q441.73-3.58 441.06-6.21L441.06-6.21L441.06-6.21Q440.38-8.83 440.38-13.12L440.38-13.12L440.38-13.12Q440.38-17.41 441.86-21.31L441.86-21.31L441.86-21.31Q443.33-25.22 446.02-28.03L446.02-28.03L446.02-28.03Q451.52-33.92 460.61-33.92L460.61-33.92L460.61-33.92Q463.87-33.92 466.24-32.83L466.24-32.83L477.18-33.92L472.45-8.96L472.45-8.96Q472.26-8.19 472.26-6.78L472.26-6.78L472.26-6.78Q472.26-5.38 473.12-4.48L473.12-4.48L473.12-4.48Q473.98-3.58 475.26-3.46L475.26-3.46L475.26-3.46Q474.62-1.28 472.29 0L472.29 0L472.29 0Q469.95 1.28 467.33 1.28L467.33 1.28L467.33 1.28Q464.70 1.28 462.94 0.29L462.94 0.29L462.94 0.29Q461.18-0.70 460.67-2.37L460.67-2.37L460.67-2.37Q459.65-0.77 457.47 0.26L457.47 0.26L457.47 0.26Q455.30 1.28 452.38 1.28L452.38 1.28L452.38 1.28Q449.47 1.28 447.10 0.51L447.10 0.51L447.10 0.51Q444.74-0.26 443.23-1.92ZM456.74-27.90L456.74-27.90L456.74-27.90Q456-26.75 455.36-24.80L455.36-24.80L455.36-24.80Q454.72-22.85 453.66-17.63L453.66-17.63L453.66-17.63Q452.61-12.42 452.61-8.70L452.61-8.70L452.61-8.70Q452.61-4.99 453.18-3.90L453.18-3.90L453.18-3.90Q453.76-2.82 454.78-2.82L454.78-2.82L454.78-2.82Q456.83-2.82 458.34-4.77L458.34-4.77L458.34-4.77Q459.84-6.72 460.42-10.18L460.42-10.18L463.81-28.93L463.81-28.93Q462.46-30.08 460.90-30.08L460.90-30.08L460.90-30.08Q459.33-30.08 458.40-29.57L458.40-29.57L458.40-29.57Q457.47-29.06 456.74-27.90ZM507.71 1.28L507.71 1.28L507.71 1.28Q499.97 1.28 499.97-4.74L499.97-4.74L499.97-4.74Q500.03-6.40 500.54-9.22L500.54-9.22L501.70-15.10L501.70-15.10Q503.42-23.42 503.42-25.28L503.42-25.28L503.42-25.28Q503.42-28.99 501.25-28.99L501.25-28.99L501.25-28.99Q497.60-28.99 495.68-19.46L495.68-19.46L491.90 0L479.04 1.28L485.70-32.70L496.19-33.92L495.17-27.65L495.17-27.65Q498.18-33.92 507.39-33.92L507.39-33.92L507.39-33.92Q511.87-33.92 513.76-32.03L513.76-32.03L513.76-32.03Q515.65-30.14 515.65-25.92L515.65-25.92L515.65-25.92Q515.65-21.95 513.60-12.67L513.60-12.67L513.60-12.67Q512.64-8.51 512.64-6.94L512.64-6.94L512.64-6.94Q512.64-5.38 513.50-4.48L513.50-4.48L513.50-4.48Q514.37-3.58 515.65-3.46L515.65-3.46L515.65-3.46Q515.01-1.28 512.80 0L512.80 0L512.80 0Q510.59 1.28 507.71 1.28ZM541.12-7.23L541.12-7.23L541.12-7.23Q537.79-3.78 531.71-3.78L531.71-3.78L531.71-3.78Q524.10-3.78 522.50-9.34L522.50-9.34L522.50-9.34Q521.98-11.01 521.98-12.86L521.98-12.86L521.98-12.86Q521.98-14.72 522.37-16.64L522.37-16.64L525.38-32.64L538.37-33.92L534.85-15.30L534.85-15.30Q534.72-14.46 534.53-13.57L534.53-13.57L534.53-13.57Q534.34-12.67 534.34-11.74L534.34-11.74L534.34-11.74Q534.34-10.82 534.66-10.21L534.66-10.21L534.66-10.21Q534.98-9.60 535.42-9.22L535.42-9.22L535.42-9.22Q536.19-8.70 537.57-8.70L537.57-8.70L537.57-8.70Q538.94-8.70 540.13-10.37L540.13-10.37L540.13-10.37Q541.31-12.03 541.89-14.91L541.89-14.91L545.41-32.64L558.02-33.92L553.22-8.77L553.22-8.77Q550.85 3.52 545.98 8.38L545.98 8.38L545.98 8.38Q543.49 10.88 540.26 11.87L540.26 11.87L540.26 11.87Q537.02 12.86 532.86 12.86L532.86 12.86L532.86 12.86Q526.14 12.86 522.30 10.75L522.30 10.75L522.30 10.75Q518.46 8.64 518.46 5.12L518.46 5.12L518.46 5.12Q518.46 2.50 520.45 0.99L520.45 0.99L520.45 0.99Q522.43-0.51 525.50-0.51L525.50-0.51L525.50-0.51Q528.19-0.51 530.24 0.64L530.24 0.64L530.24 0.64Q531.46 1.34 532.03 2.24L532.03 2.24L532.03 2.24Q530.56 3.52 530.56 5.63L530.56 5.63L530.56 5.63Q530.56 8.45 533.12 8.45L533.12 8.45L533.12 8.45Q537.34 8.45 539.78-1.28L539.78-1.28L539.78-1.28Q540.48-4.16 541.12-7.23Z" fill="url(#editing-gradow-gradient)"></path></g></g><style>text {
  font-size: 64px;
  font-family: Arial Black;
  dominant-baseline: central;
  text-anchor: middle;
}</style></svg>